<svg width="306" height="319" viewBox="0 0 306 319" fill="none" xmlns="http://www.w3.org/2000/svg">
<path opacity="0.5" d="M136.951 182.503C134.521 191.687 134.174 210.575 134.174 210.575L121.159 206.762L110.572 190.994C115.099 185.547 120.03 180.449 125.324 175.745C131.642 170.564 138.509 166.09 145.802 162.401C142.223 168.808 139.259 175.539 136.951 182.503Z" fill="url(#paint0_linear_145_180)"/>
<path fill-rule="evenodd" clip-rule="evenodd" d="M76.9045 213.347L70.8304 211.787C26.0558 200.524 0.371094 181.29 0.371094 159.282C0.371094 137.102 26.0558 117.868 70.8304 106.604L76.9045 105.045L78.4664 111.11C83.1142 126.652 88.9151 141.828 95.821 156.51L97.2093 159.282L95.821 161.881C88.8398 176.59 83.0368 191.83 78.4664 207.455L76.9045 213.347ZM68.2273 120.467C34.2124 129.997 13.387 144.553 13.387 159.109C13.387 173.665 34.2124 188.221 68.2273 197.925C72.4007 184.693 77.3851 171.73 83.1522 159.109C77.3799 146.549 72.3953 133.644 68.2273 120.467ZM229.451 213.347L227.715 207.282C223.25 191.678 217.445 176.488 210.361 161.881L209.146 159.109L210.361 156.51C217.417 141.832 223.222 126.587 227.715 110.936L229.451 105.045L235.525 106.604C280.3 117.868 305.984 137.102 305.984 159.109C305.984 181.29 280.3 200.524 235.525 211.787L229.451 213.347ZM223.203 159.109C229.069 171.688 234.055 184.658 238.128 197.925C272.143 188.394 293.142 173.665 293.142 159.109C293.142 144.553 272.316 129.997 238.128 120.467C233.999 133.658 229.013 146.566 223.203 159.109Z" fill="#00D1FF"/>
<path fill-rule="evenodd" clip-rule="evenodd" d="M67.8803 120.467L66.3184 114.402C53.6496 70.2146 57.4676 38.5039 76.7311 27.4139C95.6475 16.4971 125.844 29.32 157.603 61.8971L161.942 66.4024L157.603 70.7345C146.371 82.4877 136.099 95.1199 126.886 108.51L125.15 110.936L122.2 111.109C105.943 112.482 89.8147 115.089 73.9544 118.907L67.8803 120.467ZM92.1766 36.2513C89.0197 36.1714 85.9002 36.9501 83.1523 38.5039C70.4835 45.6085 68.2274 70.9078 76.9046 105.044C90.4608 102.055 104.201 99.9714 118.035 98.8063C126.051 87.4445 134.805 76.62 144.24 66.4024C124.283 47.1681 105.54 36.2513 92.1766 36.2513ZM214.005 294.963C195.957 294.963 172.702 281.273 148.579 256.494L144.24 251.989L148.579 247.657C159.811 235.903 170.083 223.271 179.296 209.881L181.032 207.455L183.982 207.109C200.245 205.878 216.379 203.329 232.228 199.484L238.302 197.925L239.864 203.816C252.532 248.177 248.714 279.887 229.451 290.977C224.722 293.585 219.408 294.958 214.005 294.963ZM161.942 251.989C181.9 271.223 200.642 282.14 214.005 282.14C217.141 282.218 220.246 281.502 223.03 280.06C235.699 272.783 237.955 247.31 229.277 213.173C215.73 216.251 201.989 218.393 188.147 219.585C180.131 230.945 171.377 241.77 161.942 251.989Z" fill="url(#paint1_linear_145_180)"/>
<path fill-rule="evenodd" clip-rule="evenodd" d="M153.091 221.144C142.678 221.144 131.918 220.798 120.985 219.931L118.034 219.585L116.299 217.159C110.283 208.379 104.556 199.368 99.118 190.127C93.7959 181 88.8788 171.585 84.3667 161.881L83.1519 159.282L84.3667 156.509C88.8788 146.805 93.7959 137.333 99.118 128.091C104.498 119.08 110.225 110.07 116.299 101.232L118.034 98.8062L120.985 98.4597C142.296 96.7268 163.712 96.7268 185.023 98.4597L188.147 98.8062L189.709 101.232C201.937 118.731 212.677 137.221 221.814 156.509L223.029 159.282L221.814 161.881C212.743 181.204 202.001 199.701 189.709 217.159L188.147 219.585L185.023 219.931C174.263 220.798 163.503 221.144 153.091 221.144ZM125.15 207.455C143.751 208.841 162.43 208.841 181.031 207.455C191.569 192.137 200.911 176.032 208.972 159.282C200.951 142.456 191.607 126.29 181.031 110.936C162.43 109.55 143.751 109.55 125.15 110.936C114.574 126.29 105.231 142.456 97.209 159.282C105.337 175.996 114.675 192.097 125.15 207.455Z" fill="url(#paint2_linear_145_180)"/>
<path fill-rule="evenodd" clip-rule="evenodd" d="M83.3257 318.183C77.9123 318.261 72.5774 316.885 67.8802 314.198C48.6167 303.281 44.7987 271.397 57.4675 227.21L59.0294 221.145L65.1035 222.704C80.9301 226.686 97.0722 229.296 113.349 230.502L116.299 230.675L117.861 233.275C127.146 246.603 137.475 259.177 148.752 270.877L153.091 275.382L148.752 279.714C124.629 304.494 101.374 318.183 83.3257 318.183ZM68.0537 236.567C59.3765 270.704 61.6325 296.003 74.3013 303.281C86.7966 310.385 110.399 299.468 135.389 275.209C125.928 265.074 117.173 254.306 109.184 242.978C95.3536 241.698 81.6168 239.556 68.0537 236.567Z" fill="url(#paint3_linear_145_180)"/>
<path fill-rule="evenodd" clip-rule="evenodd" d="M248.888 97.2468L242.814 95.6873C227.044 91.715 210.959 89.106 194.742 87.8896L191.618 87.7163L190.056 85.1171C180.771 71.787 170.442 59.2134 159.165 47.5148L154.826 43.0094L159.165 38.6774C190.924 6.1003 221.12 -6.72265 240.037 4.19415C259.3 15.2842 263.118 46.9949 250.623 91.182L248.888 97.2468ZM198.733 75.5865C212.568 76.8276 226.308 78.9692 239.863 81.998C248.541 47.8613 246.284 22.5621 233.616 15.2843C221.12 8.0064 197.518 19.0964 172.528 43.356C181.989 53.4901 190.745 64.2587 198.733 75.5865Z" fill="url(#paint4_linear_145_180)"/>
<path d="M148.926 153.217L148.405 154.257C149.273 155.47 147.537 157.896 146.323 158.762L141.463 162.747C140.894 163.165 140.192 163.359 139.489 163.296C138.786 163.232 138.13 162.914 137.645 162.401L135.91 160.321C135.477 159.745 135.288 159.022 135.386 158.309C135.483 157.595 135.859 156.948 136.431 156.509L141.29 152.524C142.331 151.657 148.058 152.004 148.926 153.217Z" fill="url(#paint5_linear_145_180)"/>
<path d="M154.479 168.986L149.62 172.971C149.081 173.383 148.406 173.577 147.73 173.512C147.054 173.448 146.427 173.131 145.976 172.625L144.24 170.545C143.813 169.967 143.628 169.245 143.725 168.534C143.822 167.822 144.194 167.176 144.761 166.733L149.62 162.921C150.835 161.881 153.612 160.668 154.479 161.881L155.694 161.361C156.562 162.401 155.694 167.946 154.479 168.986Z" fill="url(#paint6_linear_145_180)"/>
<path d="M166.975 136.582L171.834 132.597C174.784 130.171 183.635 126.878 186.065 129.824C188.321 132.597 183.288 140.741 180.338 142.994L175.478 146.979C174.067 148.088 172.278 148.601 170.493 148.407C168.708 148.212 167.071 147.326 165.933 145.939C165.384 145.258 164.974 144.475 164.729 143.635C164.484 142.794 164.407 141.914 164.504 141.045C164.601 140.175 164.869 139.333 165.293 138.567C165.717 137.801 166.288 137.127 166.975 136.582Z" fill="url(#paint7_linear_145_180)"/>
<path d="M164.197 140.22L163.85 140.74C164.371 141.433 163.33 142.82 162.636 143.513L159.859 145.765C159.534 146.036 159.117 146.169 158.696 146.136C158.274 146.104 157.882 145.909 157.603 145.592L156.561 144.379C156.291 144.055 156.158 143.638 156.19 143.218C156.223 142.797 156.418 142.405 156.735 142.126L159.685 139.701C160.434 139.482 161.219 139.415 161.994 139.504C162.769 139.593 163.518 139.837 164.197 140.22Z" fill="url(#paint8_linear_145_180)"/>
<path d="M170.619 153.564L168.189 155.47C168.061 155.601 167.905 155.702 167.733 155.765C167.561 155.828 167.376 155.852 167.194 155.836C167.011 155.819 166.834 155.762 166.676 155.669C166.518 155.576 166.383 155.449 166.28 155.297L165.413 154.257C165.187 153.979 165.079 153.625 165.112 153.269C165.144 152.913 165.314 152.584 165.586 152.351L168.016 150.272C168.71 149.925 170.098 149.232 170.619 149.752L171.14 149.579C171.359 150.239 171.426 150.941 171.335 151.631C171.245 152.321 171 152.982 170.619 153.564Z" fill="url(#paint9_linear_145_180)"/>
<path d="M172.181 132.25L180.685 142.647L145.108 171.585L136.604 161.015L172.181 132.25Z" fill="url(#paint10_linear_145_180)"/>
<path d="M148.405 151.484L156.909 161.881L145.108 171.585L136.604 161.015L148.405 151.484Z" fill="url(#paint11_linear_145_180)"/>
<defs>
<linearGradient id="paint0_linear_145_180" x1="122.374" y1="204.697" x2="151.363" y2="175.292" gradientUnits="userSpaceOnUse">
<stop stop-color="#0047FF"/>
<stop offset="1" stop-color="#001959"/>
</linearGradient>
<linearGradient id="paint1_linear_145_180" x1="153.091" y1="23.5989" x2="153.091" y2="294.963" gradientUnits="userSpaceOnUse">
<stop stop-color="#002FD3"/>
<stop offset="0.348958" stop-color="#5B02FF"/>
<stop offset="1" stop-color="#32FFDA"/>
</linearGradient>
<linearGradient id="paint2_linear_145_180" x1="153.091" y1="97.16" x2="153.091" y2="221.144" gradientUnits="userSpaceOnUse">
<stop stop-color="#002FD3"/>
<stop offset="0.348958" stop-color="#5B02FF"/>
<stop offset="1" stop-color="#32FFDA"/>
</linearGradient>
<linearGradient id="paint3_linear_145_180" x1="101.598" y1="221.145" x2="101.598" y2="318.186" gradientUnits="userSpaceOnUse">
<stop stop-color="#002FD3"/>
<stop offset="0.348958" stop-color="#5B02FF"/>
<stop offset="1" stop-color="#32FFDA"/>
</linearGradient>
<linearGradient id="paint4_linear_145_180" x1="206.338" y1="0.37915" x2="206.338" y2="97.2468" gradientUnits="userSpaceOnUse">
<stop stop-color="#002FD3"/>
<stop offset="0.348958" stop-color="#5B02FF"/>
<stop offset="1" stop-color="#32FFDA"/>
</linearGradient>
<linearGradient id="paint5_linear_145_180" x1="142.143" y1="152.042" x2="142.143" y2="163.308" gradientUnits="userSpaceOnUse">
<stop stop-color="#002FD3"/>
<stop offset="0.348958" stop-color="#5B02FF"/>
<stop offset="1" stop-color="#32FFDA"/>
</linearGradient>
<linearGradient id="paint6_linear_145_180" x1="149.873" y1="161.361" x2="149.873" y2="173.525" gradientUnits="userSpaceOnUse">
<stop stop-color="#002FD3"/>
<stop offset="0.348958" stop-color="#5B02FF"/>
<stop offset="1" stop-color="#32FFDA"/>
</linearGradient>
<linearGradient id="paint7_linear_145_180" x1="175.546" y1="128.661" x2="175.546" y2="148.447" gradientUnits="userSpaceOnUse">
<stop stop-color="#002FD3"/>
<stop offset="0.348958" stop-color="#5B02FF"/>
<stop offset="1" stop-color="#32FFDA"/>
</linearGradient>
<linearGradient id="paint8_linear_145_180" x1="160.191" y1="139.466" x2="160.191" y2="146.141" gradientUnits="userSpaceOnUse">
<stop stop-color="#002FD3"/>
<stop offset="0.348958" stop-color="#5B02FF"/>
<stop offset="1" stop-color="#32FFDA"/>
</linearGradient>
<linearGradient id="paint9_linear_145_180" x1="168.24" y1="149.565" x2="168.24" y2="155.841" gradientUnits="userSpaceOnUse">
<stop stop-color="#002FD3"/>
<stop offset="0.348958" stop-color="#5B02FF"/>
<stop offset="1" stop-color="#32FFDA"/>
</linearGradient>
<linearGradient id="paint10_linear_145_180" x1="158.644" y1="132.25" x2="158.644" y2="171.585" gradientUnits="userSpaceOnUse">
<stop stop-color="#002FD3"/>
<stop offset="0.348958" stop-color="#5B02FF"/>
<stop offset="1" stop-color="#32FFDA"/>
</linearGradient>
<linearGradient id="paint11_linear_145_180" x1="146.756" y1="151.484" x2="146.756" y2="171.585" gradientUnits="userSpaceOnUse">
<stop stop-color="#002FD3"/>
<stop offset="0.348958" stop-color="#5B02FF"/>
<stop offset="1" stop-color="#32FFDA"/>
</linearGradient>
</defs>
</svg>
